<?xml version="1.0" encoding="UTF-8" standalone="no"?>
<!DOCTYPE svg PUBLIC "-//W3C//DTD SVG 1.1//EN" "http://www.w3.org/Graphics/SVG/1.1/DTD/svg11.dtd">
<svg xmlns="http://www.w3.org/2000/svg" version="1.1" viewBox="0.00 0.00 800.00 350.00">
<g stroke-width="2.00" fill="none" stroke-linecap="butt">
<path stroke="#888888" vector-effect="non-scaling-stroke" d="
  M 72.80 89.05
  Q 69.63 91.00 67.21 94.23
  A 1.83 1.81 -82.6 0 1 66.45 94.82
  Q 65.83 95.07 65.36 95.53
  Q 61.67 99.19 57.08 103.37
  Q 56.20 104.17 55.59 105.19
  Q 54.98 106.22 53.89 106.72
  Q 52.96 107.15 52.15 107.92
  Q 50.53 109.45 48.89 111.01
  Q 32.84 126.19 16.69 141.73
  Q 14.26 144.08 12.58 148.14
  C 9.07 156.66 13.01 165.03 20.76 169.57
  Q 29.28 174.55 37.16 179.00
  C 45.77 183.86 51.73 188.33 55.36 196.30
  C 58.45 203.06 60.18 210.86 58.47 218.20
  Q 46.29 270.35 33.76 322.74
  Q 32.48 328.09 31.50 333.24
  C 30.79 337.01 31.44 344.70 37.41 341.87
  Q 40.83 340.24 44.47 336.84
  Q 54.61 327.35 64.94 317.38
  Q 68.41 314.03 72.30 310.55
  Q 75.92 307.30 79.54 303.64
  Q 79.64 303.53 79.59 303.38
  Q 79.50 303.17 79.28 303.11
  A 0.05 0.05 0.0 0 1 79.27 303.01
  Q 82.31 301.46 84.44 298.94
  Q 85.69 297.46 87.19 296.28
  Q 89.04 294.83 90.72 293.12
  Q 90.88 292.95 90.85 292.71
  Q 90.78 292.27 91.17 292.04
  Q 93.65 290.61 95.53 288.35
  Q 96.96 286.63 98.79 285.23
  Q 100.99 283.53 102.95 281.11
  C 104.09 279.70 105.99 279.22 106.92 277.73
  Q 107.87 276.18 109.26 275.12
  Q 110.88 273.89 112.46 272.64
  C 113.18 272.07 113.52 271.37 114.17 270.72
  Q 120.84 264.01 128.20 257.32
  Q 131.55 254.27 134.83 251.00
  Q 139.86 245.97 141.50 244.51
  Q 147.95 238.76 151.64 235.05
  Q 154.06 232.62 156.50 230.62
  Q 159.02 228.56 161.39 226.17
  Q 164.76 222.76 168.29 219.37
  Q 171.80 215.99 175.37 212.79
  Q 179.05 209.50 182.23 205.87
  A 1.17 1.16 63.2 0 0 182.51 205.01
  Q 182.46 204.32 183.01 203.89
  Q 183.37 203.61 183.58 203.20
  Q 187.78 194.89 183.16 186.99
  C 181.22 183.67 177.70 181.22 174.41 179.34
  Q 165.66 174.33 156.95 169.31
  Q 145.79 162.88 141.70 153.91
  Q 137.45 144.60 137.88 136.93
  Q 138.16 131.76 139.56 126.81
  Q 140.82 122.33 141.83 117.38
  Q 143.09 111.23 144.70 104.93
  Q 146.37 98.40 147.74 92.51
  Q 152.72 71.07 158.09 48.71
  Q 158.63 46.47 158.97 44.24
  Q 159.36 41.73 160.00 39.34
  Q 162.99 28.29 165.26 18.21
  Q 166.15 14.25 165.39 10.81
  C 164.46 6.59 160.14 7.26 157.45 9.10
  Q 154.13 11.37 150.19 15.13
  Q 139.40 25.46 126.99 37.25
  Q 123.65 40.42 120.49 43.35
  Q 111.72 51.50 103.67 59.61
  Q 102.55 60.74 101.58 61.40
  Q 100.98 61.82 100.47 62.30
  Q 93.88 68.55 87.36 74.87
  Q 85.97 76.22 84.55 77.96
  A 0.54 0.53 -68.5 0 1 84.12 78.15
  Q 83.88 78.13 83.71 78.29
  Q 78.17 83.21 73.11 88.40
  Q 73.04 88.47 73.05 88.57
  Q 73.07 88.73 72.99 88.87
  Q 72.92 88.98 72.80 89.05"
/>
<path stroke="#888888" vector-effect="non-scaling-stroke" d="
  M 246.99 153.75
  A 0.42 0.42 0.0 0 1 246.57 153.33
  L 246.60 141.41
  A 0.42 0.42 0.0 0 1 247.02 140.99
  L 286.10 140.99
  A 0.42 0.42 0.0 0 0 286.52 140.57
  L 286.55 123.33
  A 0.42 0.42 0.0 0 0 286.13 122.91
  L 227.44 122.82
  A 0.42 0.42 0.0 0 0 227.02 123.24
  L 227.02 202.44
  A 0.42 0.42 0.0 0 0 227.44 202.86
  L 286.14 202.86
  A 0.42 0.42 0.0 0 0 286.56 202.44
  L 286.56 185.17
  A 0.42 0.42 0.0 0 0 286.14 184.75
  L 246.99 184.74
  A 0.42 0.42 0.0 0 1 246.57 184.32
  L 246.55 172.23
  A 0.42 0.42 0.0 0 1 246.97 171.81
  L 278.32 171.83
  A 0.42 0.42 0.0 0 0 278.74 171.41
  L 278.74 154.16
  A 0.42 0.42 0.0 0 0 278.32 153.74
  L 246.99 153.75"
/>
<path stroke="#888888" vector-effect="non-scaling-stroke" d="
  M 496.76 175.11
  Q 497.51 175.01 498.15 174.58
  C 504.40 170.42 508.09 165.31 507.72 157.61
  C 507.28 148.68 501.54 142.53 493.40 139.40
  Q 485.27 136.27 477.56 136.64
  Q 467.47 137.11 460.36 141.60
  A 1.77 1.76 28.0 0 1 459.44 141.88
  C 459.04 141.89 458.75 141.95 458.42 142.20
  Q 454.71 144.99 451.49 148.33
  C 450.27 149.59 449.84 151.32 448.78 152.79
  Q 446.34 156.18 445.05 160.94
  C 443.93 165.08 444.40 169.67 444.34 173.97
  Q 444.28 178.14 446.19 182.63
  Q 447.45 185.58 448.81 188.51
  Q 449.16 189.28 449.68 189.92
  C 450.58 191.04 451.28 192.13 452.41 193.00
  C 454.22 194.40 455.52 196.27 457.52 197.48
  Q 465.97 202.60 475.30 203.42
  C 485.10 204.27 492.83 203.10 501.99 200.94
  Q 502.51 200.81 502.51 200.27
  L 502.51 183.29
  Q 502.51 182.77 501.99 182.84
  Q 489.69 184.70 480.02 184.71
  Q 475.56 184.71 470.22 182.60
  Q 466.19 181.00 465.20 177.09
  A 0.39 0.39 0.0 0 1 465.73 176.63
  Q 480.56 182.64 496.21 175.27
  Q 496.47 175.15 496.76 175.11"
/>
<path stroke="#888888" vector-effect="non-scaling-stroke" d="
  M 629.64 180.29
  L 632.12 181.87
  A 1.46 1.46 0.0 0 1 631.85 184.46
  Q 629.10 185.52 625.97 185.59
  Q 616.30 185.80 607.12 185.15
  Q 602.88 184.85 594.18 182.68
  Q 593.48 182.50 593.48 183.23
  L 593.45 200.22
  Q 593.45 200.75 593.97 200.86
  Q 611.05 204.66 625.03 203.57
  Q 635.41 202.75 642.48 198.48
  Q 652.85 192.22 651.33 178.68
  Q 650.92 174.99 648.47 171.89
  Q 644.65 167.05 640.18 165.40
  Q 639.50 165.15 638.78 164.95
  Q 631.72 162.98 624.72 161.61
  Q 619.36 160.56 613.55 159.02
  A 1.50 1.50 0.0 0 1 613.13 156.31
  C 614.25 155.61 615.39 155.25 616.72 155.19
  Q 632.31 154.45 647.37 158.01
  A 0.54 0.53 6.5 0 0 648.03 157.49
  L 648.03 140.30
  Q 648.03 139.80 647.55 139.69
  Q 634.31 136.62 621.76 136.63
  Q 612.52 136.65 604.11 141.13
  C 603.00 141.72 601.61 141.98 600.43 143.19
  Q 597.38 146.31 595.33 149.43
  Q 595.05 149.86 595.06 150.37
  Q 595.09 151.64 594.67 152.73
  Q 594.16 154.05 594.13 155.42
  Q 594.04 160.37 595.07 164.57
  Q 595.55 166.53 597.51 168.90
  Q 597.86 169.33 598.36 169.57
  Q 599.51 170.15 600.05 171.26
  Q 600.26 171.68 600.63 171.97
  C 601.91 172.95 603.19 173.91 604.82 174.22
  Q 606.17 174.47 607.46 174.95
  Q 615.91 178.04 626.98 179.94
  Q 628.04 180.12 629.16 180.14
  A 0.87 0.83 61.1 0 1 629.64 180.29"
/>
<path stroke="#888888" vector-effect="non-scaling-stroke" d="
  M 375.03 150.53
  Q 374.61 150.73 374.67 151.19
  A 0.74 0.67 60.0 0 1 374.56 151.69
  Q 369.20 159.55 369.23 169.60
  Q 369.30 197.50 369.25 228.37
  A 0.66 0.66 0.0 0 0 369.91 229.03
  L 388.50 229.01
  A 0.51 0.51 0.0 0 0 389.01 228.50
  L 389.01 197.44
  Q 389.01 196.49 389.70 197.15
  C 397.41 204.60 407.63 205.09 417.77 201.34
  C 419.29 200.78 420.46 199.67 421.98 199.19
  Q 423.54 198.70 424.86 197.64
  Q 428.75 194.49 431.05 191.71
  Q 433.54 188.71 435.56 184.68
  C 436.29 183.21 435.99 181.62 436.71 180.15
  Q 437.40 178.75 437.69 177.24
  Q 439.12 169.70 437.80 163.25
  Q 437.40 161.30 437.20 160.08
  Q 436.91 158.31 436.29 156.84
  Q 432.85 148.61 425.26 143.05
  C 423.80 141.98 421.95 141.57 420.40 140.57
  C 412.05 135.18 396.20 135.53 387.41 140.54
  Q 385.84 141.43 384.11 142.08
  Q 382.14 142.81 380.61 144.33
  Q 378.60 146.33 376.51 148.30
  Q 375.71 149.05 375.39 150.11
  Q 375.30 150.40 375.03 150.53"
/>
<path stroke="#888888" vector-effect="non-scaling-stroke" d="
  M 524.66 148.63
  C 519.41 154.96 517.57 162.07 517.56 169.87
  Q 517.56 186.46 517.57 202.21
  Q 517.57 202.86 518.22 202.86
  L 536.54 202.85
  Q 537.21 202.85 537.21 202.18
  Q 537.22 186.26 537.21 169.09
  C 537.20 165.75 538.14 162.94 539.88 160.11
  Q 541.51 157.44 545.01 156.13
  Q 551.44 153.72 558.26 156.62
  Q 559.91 157.32 560.96 158.69
  C 563.25 161.66 564.58 164.70 564.62 168.59
  Q 564.78 185.59 564.67 202.24
  Q 564.67 202.84 565.27 202.84
  L 583.74 202.86
  A 0.52 0.52 0.0 0 0 584.26 202.34
  Q 584.28 187.94 584.25 172.75
  Q 584.24 164.83 582.52 158.70
  Q 581.19 153.95 578.18 149.84
  Q 574.47 144.78 570.41 142.30
  C 559.54 135.64 544.30 134.19 533.32 141.53
  C 532.54 142.05 531.50 141.98 530.81 142.52
  Q 527.69 144.98 524.66 148.63"
/>
<path stroke="#888888" vector-effect="non-scaling-stroke" d="
  M 678.92 176.54
  Q 685.01 179.41 691.44 179.35
  Q 701.50 179.26 710.13 174.65
  Q 711.02 174.18 712.00 173.80
  Q 713.36 173.28 714.31 172.02
  Q 714.93 171.20 715.66 170.46
  C 717.74 168.35 719.77 166.46 719.65 163.27
  Q 719.63 162.91 719.90 162.66
  Q 720.31 162.30 720.34 161.76
  C 720.49 159.41 720.19 157.23 720.29 154.85
  Q 720.36 153.16 719.41 151.26
  Q 716.69 145.80 712.17 142.44
  Q 711.37 141.85 710.43 141.56
  Q 709.42 141.24 708.54 140.66
  Q 707.37 139.87 706.02 139.32
  C 696.16 135.23 683.07 135.68 673.74 141.36
  Q 673.30 141.63 672.79 141.61
  Q 672.14 141.58 671.78 141.86
  Q 665.82 146.53 664.76 148.15
  Q 662.80 151.12 660.68 153.98
  C 659.99 154.91 658.41 158.45 658.38 160.27
  Q 658.37 161.24 657.97 162.26
  Q 657.64 163.07 657.79 162.21
  Q 657.83 161.98 657.72 161.80
  Q 657.55 161.51 657.53 161.84
  Q 656.60 173.60 658.43 180.99
  Q 659.49 185.29 663.33 190.59
  Q 664.44 192.12 665.78 193.28
  Q 667.09 194.41 668.22 195.57
  Q 669.72 197.11 672.22 198.33
  C 675.03 199.70 677.65 201.29 680.63 202.03
  Q 692.68 205.00 704.94 202.95
  Q 709.67 202.15 715.01 200.95
  A 0.68 0.68 0.0 0 0 715.53 200.28
  L 715.37 183.28
  Q 715.37 182.73 714.83 182.82
  Q 708.30 183.92 701.57 184.33
  C 697.26 184.59 692.85 185.20 688.69 184.21
  Q 686.01 183.58 683.25 182.84
  Q 681.13 182.27 679.89 180.45
  Q 678.89 179.00 678.07 177.42
  Q 677.18 175.71 678.92 176.54"
/>
<path stroke="#888888" vector-effect="non-scaling-stroke" d="
  M 734.85 171.93
  Q 735.87 173.02 737.72 173.86
  C 738.78 174.35 739.63 173.85 740.64 174.53
  Q 741.57 175.15 742.65 175.48
  Q 753.63 178.75 763.86 180.63
  Q 765.45 180.92 766.55 182.42
  Q 767.38 183.56 766.16 184.26
  Q 764.13 185.42 761.70 185.49
  C 753.23 185.75 744.77 185.94 736.68 184.49
  Q 732.13 183.68 727.76 182.57
  Q 727.46 182.50 727.46 182.80
  L 727.45 200.05
  Q 727.45 200.69 728.07 200.84
  Q 744.01 204.58 759.38 203.57
  C 769.92 202.87 783.41 198.07 785.21 185.79
  Q 787.41 170.74 773.38 164.90
  Q 773.21 164.83 773.08 164.98
  Q 773.04 165.02 772.99 165.04
  Q 772.85 165.09 772.70 165.04
  Q 763.08 162.18 758.54 161.42
  Q 752.82 160.46 747.69 159.03
  A 1.47 1.47 0.0 0 1 747.06 156.56
  Q 748.16 155.50 749.60 155.36
  C 759.67 154.38 771.01 155.68 781.44 157.95
  Q 782.23 158.12 782.23 157.31
  L 782.24 140.45
  Q 782.24 139.85 781.65 139.72
  Q 765.86 136.17 753.44 136.80
  Q 745.42 137.21 737.79 141.36
  Q 736.92 141.83 736.02 142.20
  Q 734.65 142.76 733.57 144.00
  Q 731.90 145.93 730.45 148.03
  Q 728.17 151.33 728.14 155.18
  C 728.11 157.98 727.81 161.23 728.83 163.89
  Q 730.05 167.07 732.63 169.54
  Q 732.75 169.65 734.85 171.93"
/>
<path stroke="#888888" vector-effect="non-scaling-stroke" d="
  M 331.62 147.75
  Q 329.92 149.08 329.33 150.95
  C 328.98 152.07 328.00 152.86 327.36 153.83
  A 0.72 0.72 0.0 0 1 326.20 153.89
  Q 323.80 151.03 321.39 147.95
  C 320.69 147.05 320.47 145.99 319.73 145.11
  Q 316.70 141.52 314.35 137.76
  Q 314.06 137.29 313.50 137.29
  L 293.06 137.30
  A 0.38 0.37 71.8 0 0 292.76 137.90
  Q 295.40 141.48 298.38 145.41
  Q 299.81 147.30 301.07 149.21
  Q 302.33 151.12 303.99 152.82
  Q 304.35 153.20 304.51 153.70
  Q 304.79 154.56 305.37 155.28
  Q 306.96 157.25 308.70 159.17
  Q 310.54 161.21 311.83 163.49
  Q 313.43 166.31 315.47 168.65
  A 1.35 1.34 49.3 0 1 315.33 170.56
  Q 313.36 172.22 312.25 174.29
  Q 311.39 175.91 310.15 177.42
  Q 307.28 180.89 304.89 184.51
  Q 303.88 186.05 302.68 187.27
  Q 301.23 188.73 300.36 190.40
  Q 299.58 191.90 298.53 193.17
  Q 297.42 194.51 296.37 195.82
  C 295.06 197.44 293.79 200.07 292.03 201.62
  Q 290.61 202.87 292.50 202.87
  L 312.06 202.88
  Q 312.58 202.88 312.94 202.51
  Q 313.91 201.56 314.43 200.28
  Q 315.15 198.52 316.60 197.10
  Q 317.89 195.84 318.98 194.17
  Q 322.11 189.39 326.00 184.87
  Q 326.35 184.46 326.84 184.71
  Q 328.87 185.78 329.49 187.71
  C 330.17 189.86 332.25 191.56 333.76 193.17
  Q 334.13 193.56 334.27 194.09
  Q 334.69 195.64 335.15 196.15
  Q 337.16 198.38 338.96 200.62
  Q 339.30 201.05 339.43 201.58
  Q 339.72 202.84 341.07 202.85
  Q 351.76 202.90 361.16 202.83
  Q 361.97 202.82 361.47 202.17
  Q 357.07 196.49 352.30 189.93
  Q 351.31 188.58 350.07 187.32
  Q 349.88 187.13 349.86 186.86
  Q 349.85 186.72 349.84 186.59
  Q 349.83 186.28 349.65 186.03
  Q 347.42 182.99 344.92 180.20
  Q 344.90 180.17 344.89 180.13
  Q 344.83 179.92 344.89 179.71
  Q 344.99 179.37 344.76 179.10
  L 337.84 170.71
  A 2.24 2.23 -44.7 0 1 337.86 167.84
  L 343.28 161.38
  A 1.34 1.27 -21.6 0 0 343.55 160.80
  Q 343.81 159.42 344.87 158.38
  Q 347.76 155.51 349.47 152.36
  Q 350.45 150.53 351.59 149.26
  Q 352.91 147.80 354.12 146.31
  Q 354.36 146.01 354.44 145.64
  Q 354.54 145.23 354.90 145.05
  Q 355.82 144.58 355.86 143.60
  Q 355.89 143.10 356.20 142.73
  L 360.24 137.92
  A 0.39 0.38 19.7 0 0 359.94 137.29
  L 339.54 137.30
  A 0.85 0.85 0.0 0 0 338.82 137.70
  Q 337.17 140.35 334.95 142.58
  Q 334.51 143.02 334.42 143.63
  Q 334.27 144.58 333.59 145.26
  Q 332.66 146.20 332.10 147.19
  Q 331.92 147.52 331.62 147.75"
/>
<path stroke="#888888" vector-effect="non-scaling-stroke" d="
  M 487.88 161.11
  C 489.14 158.15 485.77 156.38 483.46 156.05
  Q 476.13 155.00 470.54 157.24
  Q 467.83 158.31 465.78 161.81
  Q 465.44 162.40 466.08 162.63
  Q 474.89 165.68 483.04 164.24
  C 484.89 163.91 487.11 162.93 487.88 161.11"
/>
<path stroke="#888888" vector-effect="non-scaling-stroke" d="
  M 392.37 159.12
  Q 389.95 161.45 389.65 163.78
  C 389.10 168.02 388.36 173.32 390.35 177.37
  Q 390.79 178.27 390.87 179.26
  Q 390.91 179.78 391.24 180.17
  Q 393.73 183.10 397.10 184.31
  Q 405.71 187.40 414.26 182.33
  Q 415.28 181.72 415.93 180.71
  Q 421.60 171.93 417.64 162.69
  C 417.11 161.45 416.01 160.57 415.72 159.27
  A 1.35 1.34 10.2 0 0 415.13 158.43
  Q 405.64 152.37 395.56 156.94
  Q 395.25 157.08 394.92 157.12
  Q 394.58 157.17 394.43 157.48
  Q 394.10 158.20 393.32 158.08
  Q 392.86 158.01 392.71 158.55
  Q 392.62 158.88 392.37 159.12"
/>
<path stroke="#888888" vector-effect="non-scaling-stroke" d="
  M 699.48 157.35
  C 696.12 154.97 689.98 155.50 686.41 156.44
  Q 685.25 156.75 684.10 157.02
  Q 682.35 157.43 680.98 158.66
  Q 680.39 159.20 680.05 159.93
  Q 679.64 160.83 678.99 161.62
  A 0.64 0.63 -59.4 0 0 679.24 162.62
  Q 688.05 166.12 697.17 164.01
  C 698.09 163.79 698.24 163.39 699.03 163.04
  C 701.49 161.97 701.53 158.81 699.48 157.35"
/>
</g>
<path fill="#ffffff" d="
  M 0.00 0.00
  L 800.00 0.00
  L 800.00 350.00
  L 0.00 350.00
  L 0.00 0.00
  Z
  M 72.80 89.05
  Q 69.63 91.00 67.21 94.23
  A 1.83 1.81 -82.6 0 1 66.45 94.82
  Q 65.83 95.07 65.36 95.53
  Q 61.67 99.19 57.08 103.37
  Q 56.20 104.17 55.59 105.19
  Q 54.98 106.22 53.89 106.72
  Q 52.96 107.15 52.15 107.92
  Q 50.53 109.45 48.89 111.01
  Q 32.84 126.19 16.69 141.73
  Q 14.26 144.08 12.58 148.14
  C 9.07 156.66 13.01 165.03 20.76 169.57
  Q 29.28 174.55 37.16 179.00
  C 45.77 183.86 51.73 188.33 55.36 196.30
  C 58.45 203.06 60.18 210.86 58.47 218.20
  Q 46.29 270.35 33.76 322.74
  Q 32.48 328.09 31.50 333.24
  C 30.79 337.01 31.44 344.70 37.41 341.87
  Q 40.83 340.24 44.47 336.84
  Q 54.61 327.35 64.94 317.38
  Q 68.41 314.03 72.30 310.55
  Q 75.92 307.30 79.54 303.64
  Q 79.64 303.53 79.59 303.38
  Q 79.50 303.17 79.28 303.11
  A 0.05 0.05 0.0 0 1 79.27 303.01
  Q 82.31 301.46 84.44 298.94
  Q 85.69 297.46 87.19 296.28
  Q 89.04 294.83 90.72 293.12
  Q 90.88 292.95 90.85 292.71
  Q 90.78 292.27 91.17 292.04
  Q 93.65 290.61 95.53 288.35
  Q 96.96 286.63 98.79 285.23
  Q 100.99 283.53 102.95 281.11
  C 104.09 279.70 105.99 279.22 106.92 277.73
  Q 107.87 276.18 109.26 275.12
  Q 110.88 273.89 112.46 272.64
  C 113.18 272.07 113.52 271.37 114.17 270.72
  Q 120.84 264.01 128.20 257.32
  Q 131.55 254.27 134.83 251.00
  Q 139.86 245.97 141.50 244.51
  Q 147.95 238.76 151.64 235.05
  Q 154.06 232.62 156.50 230.62
  Q 159.02 228.56 161.39 226.17
  Q 164.76 222.76 168.29 219.37
  Q 171.80 215.99 175.37 212.79
  Q 179.05 209.50 182.23 205.87
  A 1.17 1.16 63.2 0 0 182.51 205.01
  Q 182.46 204.32 183.01 203.89
  Q 183.37 203.61 183.58 203.20
  Q 187.78 194.89 183.16 186.99
  C 181.22 183.67 177.70 181.22 174.41 179.34
  Q 165.66 174.33 156.95 169.31
  Q 145.79 162.88 141.70 153.91
  Q 137.45 144.60 137.88 136.93
  Q 138.16 131.76 139.56 126.81
  Q 140.82 122.33 141.83 117.38
  Q 143.09 111.23 144.70 104.93
  Q 146.37 98.40 147.74 92.51
  Q 152.72 71.07 158.09 48.71
  Q 158.63 46.47 158.97 44.24
  Q 159.36 41.73 160.00 39.34
  Q 162.99 28.29 165.26 18.21
  Q 166.15 14.25 165.39 10.81
  C 164.46 6.59 160.14 7.26 157.45 9.10
  Q 154.13 11.37 150.19 15.13
  Q 139.40 25.46 126.99 37.25
  Q 123.65 40.42 120.49 43.35
  Q 111.72 51.50 103.67 59.61
  Q 102.55 60.74 101.58 61.40
  Q 100.98 61.82 100.47 62.30
  Q 93.88 68.55 87.36 74.87
  Q 85.97 76.22 84.55 77.96
  A 0.54 0.53 -68.5 0 1 84.12 78.15
  Q 83.88 78.13 83.71 78.29
  Q 78.17 83.21 73.11 88.40
  Q 73.04 88.47 73.05 88.57
  Q 73.07 88.73 72.99 88.87
  Q 72.92 88.98 72.80 89.05
  Z
  M 246.99 153.75
  A 0.42 0.42 0.0 0 1 246.57 153.33
  L 246.60 141.41
  A 0.42 0.42 0.0 0 1 247.02 140.99
  L 286.10 140.99
  A 0.42 0.42 0.0 0 0 286.52 140.57
  L 286.55 123.33
  A 0.42 0.42 0.0 0 0 286.13 122.91
  L 227.44 122.82
  A 0.42 0.42 0.0 0 0 227.02 123.24
  L 227.02 202.44
  A 0.42 0.42 0.0 0 0 227.44 202.86
  L 286.14 202.86
  A 0.42 0.42 0.0 0 0 286.56 202.44
  L 286.56 185.17
  A 0.42 0.42 0.0 0 0 286.14 184.75
  L 246.99 184.74
  A 0.42 0.42 0.0 0 1 246.57 184.32
  L 246.55 172.23
  A 0.42 0.42 0.0 0 1 246.97 171.81
  L 278.32 171.83
  A 0.42 0.42 0.0 0 0 278.74 171.41
  L 278.74 154.16
  A 0.42 0.42 0.0 0 0 278.32 153.74
  L 246.99 153.75
  Z
  M 496.76 175.11
  Q 497.51 175.01 498.15 174.58
  C 504.40 170.42 508.09 165.31 507.72 157.61
  C 507.28 148.68 501.54 142.53 493.40 139.40
  Q 485.27 136.27 477.56 136.64
  Q 467.47 137.11 460.36 141.60
  A 1.77 1.76 28.0 0 1 459.44 141.88
  C 459.04 141.89 458.75 141.95 458.42 142.20
  Q 454.71 144.99 451.49 148.33
  C 450.27 149.59 449.84 151.32 448.78 152.79
  Q 446.34 156.18 445.05 160.94
  C 443.93 165.08 444.40 169.67 444.34 173.97
  Q 444.28 178.14 446.19 182.63
  Q 447.45 185.58 448.81 188.51
  Q 449.16 189.28 449.68 189.92
  C 450.58 191.04 451.28 192.13 452.41 193.00
  C 454.22 194.40 455.52 196.27 457.52 197.48
  Q 465.97 202.60 475.30 203.42
  C 485.10 204.27 492.83 203.10 501.99 200.94
  Q 502.51 200.81 502.51 200.27
  L 502.51 183.29
  Q 502.51 182.77 501.99 182.84
  Q 489.69 184.70 480.02 184.71
  Q 475.56 184.71 470.22 182.60
  Q 466.19 181.00 465.20 177.09
  A 0.39 0.39 0.0 0 1 465.73 176.63
  Q 480.56 182.64 496.21 175.27
  Q 496.47 175.15 496.76 175.11
  Z
  M 629.64 180.29
  L 632.12 181.87
  A 1.46 1.46 0.0 0 1 631.85 184.46
  Q 629.10 185.52 625.97 185.59
  Q 616.30 185.80 607.12 185.15
  Q 602.88 184.85 594.18 182.68
  Q 593.48 182.50 593.48 183.23
  L 593.45 200.22
  Q 593.45 200.75 593.97 200.86
  Q 611.05 204.66 625.03 203.57
  Q 635.41 202.75 642.48 198.48
  Q 652.85 192.22 651.33 178.68
  Q 650.92 174.99 648.47 171.89
  Q 644.65 167.05 640.18 165.40
  Q 639.50 165.15 638.78 164.95
  Q 631.72 162.98 624.72 161.61
  Q 619.36 160.56 613.55 159.02
  A 1.50 1.50 0.0 0 1 613.13 156.31
  C 614.25 155.61 615.39 155.25 616.72 155.19
  Q 632.31 154.45 647.37 158.01
  A 0.54 0.53 6.5 0 0 648.03 157.49
  L 648.03 140.30
  Q 648.03 139.80 647.55 139.69
  Q 634.31 136.62 621.76 136.63
  Q 612.52 136.65 604.11 141.13
  C 603.00 141.72 601.61 141.98 600.43 143.19
  Q 597.38 146.31 595.33 149.43
  Q 595.05 149.86 595.06 150.37
  Q 595.09 151.64 594.67 152.73
  Q 594.16 154.05 594.13 155.42
  Q 594.04 160.37 595.07 164.57
  Q 595.55 166.53 597.51 168.90
  Q 597.86 169.33 598.36 169.57
  Q 599.51 170.15 600.05 171.26
  Q 600.26 171.68 600.63 171.97
  C 601.91 172.95 603.19 173.91 604.82 174.22
  Q 606.17 174.47 607.46 174.95
  Q 615.91 178.04 626.98 179.94
  Q 628.04 180.12 629.16 180.14
  A 0.87 0.83 61.1 0 1 629.64 180.29
  Z
  M 375.03 150.53
  Q 374.61 150.73 374.67 151.19
  A 0.74 0.67 60.0 0 1 374.56 151.69
  Q 369.20 159.55 369.23 169.60
  Q 369.30 197.50 369.25 228.37
  A 0.66 0.66 0.0 0 0 369.91 229.03
  L 388.50 229.01
  A 0.51 0.51 0.0 0 0 389.01 228.50
  L 389.01 197.44
  Q 389.01 196.49 389.70 197.15
  C 397.41 204.60 407.63 205.09 417.77 201.34
  C 419.29 200.78 420.46 199.67 421.98 199.19
  Q 423.54 198.70 424.86 197.64
  Q 428.75 194.49 431.05 191.71
  Q 433.54 188.71 435.56 184.68
  C 436.29 183.21 435.99 181.62 436.71 180.15
  Q 437.40 178.75 437.69 177.24
  Q 439.12 169.70 437.80 163.25
  Q 437.40 161.30 437.20 160.08
  Q 436.91 158.31 436.29 156.84
  Q 432.85 148.61 425.26 143.05
  C 423.80 141.98 421.95 141.57 420.40 140.57
  C 412.05 135.18 396.20 135.53 387.41 140.54
  Q 385.84 141.43 384.11 142.08
  Q 382.14 142.81 380.61 144.33
  Q 378.60 146.33 376.51 148.30
  Q 375.71 149.05 375.39 150.11
  Q 375.30 150.40 375.03 150.53
  Z
  M 524.66 148.63
  C 519.41 154.96 517.57 162.07 517.56 169.87
  Q 517.56 186.46 517.57 202.21
  Q 517.57 202.86 518.22 202.86
  L 536.54 202.85
  Q 537.21 202.85 537.21 202.18
  Q 537.22 186.26 537.21 169.09
  C 537.20 165.75 538.14 162.94 539.88 160.11
  Q 541.51 157.44 545.01 156.13
  Q 551.44 153.72 558.26 156.62
  Q 559.91 157.32 560.96 158.69
  C 563.25 161.66 564.58 164.70 564.62 168.59
  Q 564.78 185.59 564.67 202.24
  Q 564.67 202.84 565.27 202.84
  L 583.74 202.86
  A 0.52 0.52 0.0 0 0 584.26 202.34
  Q 584.28 187.94 584.25 172.75
  Q 584.24 164.83 582.52 158.70
  Q 581.19 153.95 578.18 149.84
  Q 574.47 144.78 570.41 142.30
  C 559.54 135.64 544.30 134.19 533.32 141.53
  C 532.54 142.05 531.50 141.98 530.81 142.52
  Q 527.69 144.98 524.66 148.63
  Z
  M 678.92 176.54
  Q 685.01 179.41 691.44 179.35
  Q 701.50 179.26 710.13 174.65
  Q 711.02 174.18 712.00 173.80
  Q 713.36 173.28 714.31 172.02
  Q 714.93 171.20 715.66 170.46
  C 717.74 168.35 719.77 166.46 719.65 163.27
  Q 719.63 162.91 719.90 162.66
  Q 720.31 162.30 720.34 161.76
  C 720.49 159.41 720.19 157.23 720.29 154.85
  Q 720.36 153.16 719.41 151.26
  Q 716.69 145.80 712.17 142.44
  Q 711.37 141.85 710.43 141.56
  Q 709.42 141.24 708.54 140.66
  Q 707.37 139.87 706.02 139.32
  C 696.16 135.23 683.07 135.68 673.74 141.36
  Q 673.30 141.63 672.79 141.61
  Q 672.14 141.58 671.78 141.86
  Q 665.82 146.53 664.76 148.15
  Q 662.80 151.12 660.68 153.98
  C 659.99 154.91 658.41 158.45 658.38 160.27
  Q 658.37 161.24 657.97 162.26
  Q 657.64 163.07 657.79 162.21
  Q 657.83 161.98 657.72 161.80
  Q 657.55 161.51 657.53 161.84
  Q 656.60 173.60 658.43 180.99
  Q 659.49 185.29 663.33 190.59
  Q 664.44 192.12 665.78 193.28
  Q 667.09 194.41 668.22 195.57
  Q 669.72 197.11 672.22 198.33
  C 675.03 199.70 677.65 201.29 680.63 202.03
  Q 692.68 205.00 704.94 202.95
  Q 709.67 202.15 715.01 200.95
  A 0.68 0.68 0.0 0 0 715.53 200.28
  L 715.37 183.28
  Q 715.37 182.73 714.83 182.82
  Q 708.30 183.92 701.57 184.33
  C 697.26 184.59 692.85 185.20 688.69 184.21
  Q 686.01 183.58 683.25 182.84
  Q 681.13 182.27 679.89 180.45
  Q 678.89 179.00 678.07 177.42
  Q 677.18 175.71 678.92 176.54
  Z
  M 734.85 171.93
  Q 735.87 173.02 737.72 173.86
  C 738.78 174.35 739.63 173.85 740.64 174.53
  Q 741.57 175.15 742.65 175.48
  Q 753.63 178.75 763.86 180.63
  Q 765.45 180.92 766.55 182.42
  Q 767.38 183.56 766.16 184.26
  Q 764.13 185.42 761.70 185.49
  C 753.23 185.75 744.77 185.94 736.68 184.49
  Q 732.13 183.68 727.76 182.57
  Q 727.46 182.50 727.46 182.80
  L 727.45 200.05
  Q 727.45 200.69 728.07 200.84
  Q 744.01 204.58 759.38 203.57
  C 769.92 202.87 783.41 198.07 785.21 185.79
  Q 787.41 170.74 773.38 164.90
  Q 773.21 164.83 773.08 164.98
  Q 773.04 165.02 772.99 165.04
  Q 772.85 165.09 772.70 165.04
  Q 763.08 162.18 758.54 161.42
  Q 752.82 160.46 747.69 159.03
  A 1.47 1.47 0.0 0 1 747.06 156.56
  Q 748.16 155.50 749.60 155.36
  C 759.67 154.38 771.01 155.68 781.44 157.95
  Q 782.23 158.12 782.23 157.31
  L 782.24 140.45
  Q 782.24 139.85 781.65 139.72
  Q 765.86 136.17 753.44 136.80
  Q 745.42 137.21 737.79 141.36
  Q 736.92 141.83 736.02 142.20
  Q 734.65 142.76 733.57 144.00
  Q 731.90 145.93 730.45 148.03
  Q 728.17 151.33 728.14 155.18
  C 728.11 157.98 727.81 161.23 728.83 163.89
  Q 730.05 167.07 732.63 169.54
  Q 732.75 169.65 734.85 171.93
  Z
  M 331.62 147.75
  Q 329.92 149.08 329.33 150.95
  C 328.98 152.07 328.00 152.86 327.36 153.83
  A 0.72 0.72 0.0 0 1 326.20 153.89
  Q 323.80 151.03 321.39 147.95
  C 320.69 147.05 320.47 145.99 319.73 145.11
  Q 316.70 141.52 314.35 137.76
  Q 314.06 137.29 313.50 137.29
  L 293.06 137.30
  A 0.38 0.37 71.8 0 0 292.76 137.90
  Q 295.40 141.48 298.38 145.41
  Q 299.81 147.30 301.07 149.21
  Q 302.33 151.12 303.99 152.82
  Q 304.35 153.20 304.51 153.70
  Q 304.79 154.56 305.37 155.28
  Q 306.96 157.25 308.70 159.17
  Q 310.54 161.21 311.83 163.49
  Q 313.43 166.31 315.47 168.65
  A 1.35 1.34 49.3 0 1 315.33 170.56
  Q 313.36 172.22 312.25 174.29
  Q 311.39 175.91 310.15 177.42
  Q 307.28 180.89 304.89 184.51
  Q 303.88 186.05 302.68 187.27
  Q 301.23 188.73 300.36 190.40
  Q 299.58 191.90 298.53 193.17
  Q 297.42 194.51 296.37 195.82
  C 295.06 197.44 293.79 200.07 292.03 201.62
  Q 290.61 202.87 292.50 202.87
  L 312.06 202.88
  Q 312.58 202.88 312.94 202.51
  Q 313.91 201.56 314.43 200.28
  Q 315.15 198.52 316.60 197.10
  Q 317.89 195.84 318.98 194.17
  Q 322.11 189.39 326.00 184.87
  Q 326.35 184.46 326.84 184.71
  Q 328.87 185.78 329.49 187.71
  C 330.17 189.86 332.25 191.56 333.76 193.17
  Q 334.13 193.56 334.27 194.09
  Q 334.69 195.64 335.15 196.15
  Q 337.16 198.38 338.96 200.62
  Q 339.30 201.05 339.43 201.58
  Q 339.72 202.84 341.07 202.85
  Q 351.76 202.90 361.16 202.83
  Q 361.97 202.82 361.47 202.17
  Q 357.07 196.49 352.30 189.93
  Q 351.31 188.58 350.07 187.32
  Q 349.88 187.13 349.86 186.86
  Q 349.85 186.72 349.84 186.59
  Q 349.83 186.28 349.65 186.03
  Q 347.42 182.99 344.92 180.20
  Q 344.90 180.17 344.89 180.13
  Q 344.83 179.92 344.89 179.71
  Q 344.99 179.37 344.76 179.10
  L 337.84 170.71
  A 2.24 2.23 -44.7 0 1 337.86 167.84
  L 343.28 161.38
  A 1.34 1.27 -21.6 0 0 343.55 160.80
  Q 343.81 159.42 344.87 158.38
  Q 347.76 155.51 349.47 152.36
  Q 350.45 150.53 351.59 149.26
  Q 352.91 147.80 354.12 146.31
  Q 354.36 146.01 354.44 145.64
  Q 354.54 145.23 354.90 145.05
  Q 355.82 144.58 355.86 143.60
  Q 355.89 143.10 356.20 142.73
  L 360.24 137.92
  A 0.39 0.38 19.7 0 0 359.94 137.29
  L 339.54 137.30
  A 0.85 0.85 0.0 0 0 338.82 137.70
  Q 337.17 140.35 334.95 142.58
  Q 334.51 143.02 334.42 143.63
  Q 334.27 144.58 333.59 145.26
  Q 332.66 146.20 332.10 147.19
  Q 331.92 147.52 331.62 147.75
  Z"
/>
<path fill="#111111" d="
  M 72.99 88.87
  Q 73.07 88.73 73.05 88.57
  Q 73.04 88.47 73.11 88.40
  Q 78.17 83.21 83.71 78.29
  Q 83.88 78.13 84.12 78.15
  A 0.54 0.53 -68.5 0 0 84.55 77.96
  Q 85.97 76.22 87.36 74.87
  Q 93.88 68.55 100.47 62.30
  Q 100.98 61.82 101.58 61.40
  Q 102.55 60.74 103.67 59.61
  Q 111.72 51.50 120.49 43.35
  Q 123.65 40.42 126.99 37.25
  Q 139.40 25.46 150.19 15.13
  Q 154.13 11.37 157.45 9.10
  C 160.14 7.26 164.46 6.59 165.39 10.81
  Q 166.15 14.25 165.26 18.21
  Q 162.99 28.29 160.00 39.34
  Q 159.36 41.73 158.97 44.24
  Q 158.63 46.47 158.09 48.71
  Q 152.72 71.07 147.74 92.51
  Q 146.37 98.40 144.70 104.93
  Q 143.09 111.23 141.83 117.38
  Q 140.82 122.33 139.56 126.81
  Q 138.16 131.76 137.88 136.93
  Q 137.45 144.60 141.70 153.91
  Q 145.79 162.88 156.95 169.31
  Q 165.66 174.33 174.41 179.34
  C 177.70 181.22 181.22 183.67 183.16 186.99
  Q 187.78 194.89 183.58 203.20
  Q 183.37 203.61 183.01 203.89
  Q 182.46 204.32 182.51 205.01
  A 1.17 1.16 63.2 0 1 182.23 205.87
  Q 179.05 209.50 175.37 212.79
  Q 171.80 215.99 168.29 219.37
  Q 164.76 222.76 161.39 226.17
  Q 159.02 228.56 156.50 230.62
  Q 154.06 232.62 151.64 235.05
  Q 147.95 238.76 141.50 244.51
  Q 139.86 245.97 134.83 251.00
  Q 131.55 254.27 128.20 257.32
  Q 120.84 264.01 114.17 270.72
  C 113.52 271.37 113.18 272.07 112.46 272.64
  Q 110.88 273.89 109.26 275.12
  Q 107.87 276.18 106.92 277.73
  C 105.99 279.22 104.09 279.70 102.95 281.11
  Q 100.99 283.53 98.79 285.23
  Q 96.96 286.63 95.53 288.35
  Q 93.65 290.61 91.17 292.04
  Q 90.78 292.27 90.85 292.71
  Q 90.88 292.95 90.72 293.12
  Q 89.04 294.83 87.19 296.28
  Q 85.69 297.46 84.44 298.94
  Q 82.31 301.46 79.27 303.01
  A 0.05 0.05 0.0 0 0 79.28 303.11
  Q 79.50 303.17 79.59 303.38
  Q 79.64 303.53 79.54 303.64
  Q 75.92 307.30 72.30 310.55
  Q 68.41 314.03 64.94 317.38
  Q 54.61 327.35 44.47 336.84
  Q 40.83 340.24 37.41 341.87
  C 31.44 344.70 30.79 337.01 31.50 333.24
  Q 32.48 328.09 33.76 322.74
  Q 46.29 270.35 58.47 218.20
  C 60.18 210.86 58.45 203.06 55.36 196.30
  C 51.73 188.33 45.77 183.86 37.16 179.00
  Q 29.28 174.55 20.76 169.57
  C 13.01 165.03 9.07 156.66 12.58 148.14
  Q 14.26 144.08 16.69 141.73
  Q 32.84 126.19 48.89 111.01
  Q 50.53 109.45 52.15 107.92
  Q 52.96 107.15 53.89 106.72
  Q 54.98 106.22 55.59 105.19
  Q 56.20 104.17 57.08 103.37
  Q 61.67 99.19 65.36 95.53
  Q 65.83 95.07 66.45 94.82
  A 1.83 1.81 -82.6 0 0 67.21 94.23
  Q 69.63 91.00 72.80 89.05
  Q 72.92 88.98 72.99 88.87
  Z"
/>
<path fill="#111111" d="
  M 246.99 153.75
  L 278.32 153.74
  A 0.42 0.42 0.0 0 1 278.74 154.16
  L 278.74 171.41
  A 0.42 0.42 0.0 0 1 278.32 171.83
  L 246.97 171.81
  A 0.42 0.42 0.0 0 0 246.55 172.23
  L 246.57 184.32
  A 0.42 0.42 0.0 0 0 246.99 184.74
  L 286.14 184.75
  A 0.42 0.42 0.0 0 1 286.56 185.17
  L 286.56 202.44
  A 0.42 0.42 0.0 0 1 286.14 202.86
  L 227.44 202.86
  A 0.42 0.42 0.0 0 1 227.02 202.44
  L 227.02 123.24
  A 0.42 0.42 0.0 0 1 227.44 122.82
  L 286.13 122.91
  A 0.42 0.42 0.0 0 1 286.55 123.33
  L 286.52 140.57
  A 0.42 0.42 0.0 0 1 286.10 140.99
  L 247.02 140.99
  A 0.42 0.42 0.0 0 0 246.60 141.41
  L 246.57 153.33
  A 0.42 0.42 0.0 0 0 246.99 153.75
  Z"
/>
<path fill="#111111" d="
  M 496.21 175.27
  Q 480.56 182.64 465.73 176.63
  A 0.39 0.39 0.0 0 0 465.20 177.09
  Q 466.19 181.00 470.22 182.60
  Q 475.56 184.71 480.02 184.71
  Q 489.69 184.70 501.99 182.84
  Q 502.51 182.77 502.51 183.29
  L 502.51 200.27
  Q 502.51 200.81 501.99 200.94
  C 492.83 203.10 485.10 204.27 475.30 203.42
  Q 465.97 202.60 457.52 197.48
  C 455.52 196.27 454.22 194.40 452.41 193.00
  C 451.28 192.13 450.58 191.04 449.68 189.92
  Q 449.16 189.28 448.81 188.51
  Q 447.45 185.58 446.19 182.63
  Q 444.28 178.14 444.34 173.97
  C 444.40 169.67 443.93 165.08 445.05 160.94
  Q 446.34 156.18 448.78 152.79
  C 449.84 151.32 450.27 149.59 451.49 148.33
  Q 454.71 144.99 458.42 142.20
  C 458.75 141.95 459.04 141.89 459.44 141.88
  A 1.77 1.76 28.0 0 0 460.36 141.60
  Q 467.47 137.11 477.56 136.64
  Q 485.27 136.27 493.40 139.40
  C 501.54 142.53 507.28 148.68 507.72 157.61
  C 508.09 165.31 504.40 170.42 498.15 174.58
  Q 497.51 175.01 496.76 175.11
  Q 496.47 175.15 496.21 175.27
  Z
  M 487.88 161.11
  C 489.14 158.15 485.77 156.38 483.46 156.05
  Q 476.13 155.00 470.54 157.24
  Q 467.83 158.31 465.78 161.81
  Q 465.44 162.40 466.08 162.63
  Q 474.89 165.68 483.04 164.24
  C 484.89 163.91 487.11 162.93 487.88 161.11
  Z"
/>
<path fill="#111111" d="
  M 629.16 180.14
  Q 628.04 180.12 626.98 179.94
  Q 615.91 178.04 607.46 174.95
  Q 606.17 174.47 604.82 174.22
  C 603.19 173.91 601.91 172.95 600.63 171.97
  Q 600.26 171.68 600.05 171.26
  Q 599.51 170.15 598.36 169.57
  Q 597.86 169.33 597.51 168.90
  Q 595.55 166.53 595.07 164.57
  Q 594.04 160.37 594.13 155.42
  Q 594.16 154.05 594.67 152.73
  Q 595.09 151.64 595.06 150.37
  Q 595.05 149.86 595.33 149.43
  Q 597.38 146.31 600.43 143.19
  C 601.61 141.98 603.00 141.72 604.11 141.13
  Q 612.52 136.65 621.76 136.63
  Q 634.31 136.62 647.55 139.69
  Q 648.03 139.80 648.03 140.30
  L 648.03 157.49
  A 0.54 0.53 6.5 0 1 647.37 158.01
  Q 632.31 154.45 616.72 155.19
  C 615.39 155.25 614.25 155.61 613.13 156.31
  A 1.50 1.50 0.0 0 0 613.55 159.02
  Q 619.36 160.56 624.72 161.61
  Q 631.72 162.98 638.78 164.95
  Q 639.50 165.15 640.18 165.40
  Q 644.65 167.05 648.47 171.89
  Q 650.92 174.99 651.33 178.68
  Q 652.85 192.22 642.48 198.48
  Q 635.41 202.75 625.03 203.57
  Q 611.05 204.66 593.97 200.86
  Q 593.45 200.75 593.45 200.22
  L 593.48 183.23
  Q 593.48 182.50 594.18 182.68
  Q 602.88 184.85 607.12 185.15
  Q 616.30 185.80 625.97 185.59
  Q 629.10 185.52 631.85 184.46
  A 1.46 1.46 0.0 0 0 632.12 181.87
  L 629.64 180.29
  A 0.87 0.83 61.1 0 0 629.16 180.14
  Z"
/>
<path fill="#111111" d="
  M 375.39 150.11
  Q 375.71 149.05 376.51 148.30
  Q 378.60 146.33 380.61 144.33
  Q 382.14 142.81 384.11 142.08
  Q 385.84 141.43 387.41 140.54
  C 396.20 135.53 412.05 135.18 420.40 140.57
  C 421.95 141.57 423.80 141.98 425.26 143.05
  Q 432.85 148.61 436.29 156.84
  Q 436.91 158.31 437.20 160.08
  Q 437.40 161.30 437.80 163.25
  Q 439.12 169.70 437.69 177.24
  Q 437.40 178.75 436.71 180.15
  C 435.99 181.62 436.29 183.21 435.56 184.68
  Q 433.54 188.71 431.05 191.71
  Q 428.75 194.49 424.86 197.64
  Q 423.54 198.70 421.98 199.19
  C 420.46 199.67 419.29 200.78 417.77 201.34
  C 407.63 205.09 397.41 204.60 389.70 197.15
  Q 389.01 196.49 389.01 197.44
  L 389.01 228.50
  A 0.51 0.51 0.0 0 1 388.50 229.01
  L 369.91 229.03
  A 0.66 0.66 0.0 0 1 369.25 228.37
  Q 369.30 197.50 369.23 169.60
  Q 369.20 159.55 374.56 151.69
  A 0.74 0.67 60.0 0 0 374.67 151.19
  Q 374.61 150.73 375.03 150.53
  Q 375.30 150.40 375.39 150.11
  Z
  M 392.37 159.12
  Q 389.95 161.45 389.65 163.78
  C 389.10 168.02 388.36 173.32 390.35 177.37
  Q 390.79 178.27 390.87 179.26
  Q 390.91 179.78 391.24 180.17
  Q 393.73 183.10 397.10 184.31
  Q 405.71 187.40 414.26 182.33
  Q 415.28 181.72 415.93 180.71
  Q 421.60 171.93 417.64 162.69
  C 417.11 161.45 416.01 160.57 415.72 159.27
  A 1.35 1.34 10.2 0 0 415.13 158.43
  Q 405.64 152.37 395.56 156.94
  Q 395.25 157.08 394.92 157.12
  Q 394.58 157.17 394.43 157.48
  Q 394.10 158.20 393.32 158.08
  Q 392.86 158.01 392.71 158.55
  Q 392.62 158.88 392.37 159.12
  Z"
/>
<path fill="#111111" d="
  M 524.66 148.63
  Q 527.69 144.98 530.81 142.52
  C 531.50 141.98 532.54 142.05 533.32 141.53
  C 544.30 134.19 559.54 135.64 570.41 142.30
  Q 574.47 144.78 578.18 149.84
  Q 581.19 153.95 582.52 158.70
  Q 584.24 164.83 584.25 172.75
  Q 584.28 187.94 584.26 202.34
  A 0.52 0.52 0.0 0 1 583.74 202.86
  L 565.27 202.84
  Q 564.67 202.84 564.67 202.24
  Q 564.78 185.59 564.62 168.59
  C 564.58 164.70 563.25 161.66 560.96 158.69
  Q 559.91 157.32 558.26 156.62
  Q 551.44 153.72 545.01 156.13
  Q 541.51 157.44 539.88 160.11
  C 538.14 162.94 537.20 165.75 537.21 169.09
  Q 537.22 186.26 537.21 202.18
  Q 537.21 202.85 536.54 202.85
  L 518.22 202.86
  Q 517.57 202.86 517.57 202.21
  Q 517.56 186.46 517.56 169.87
  C 517.57 162.07 519.41 154.96 524.66 148.63
  Z"
/>
<path fill="#111111" d="
  M 678.92 176.54
  Q 677.18 175.71 678.07 177.42
  Q 678.89 179.00 679.89 180.45
  Q 681.13 182.27 683.25 182.84
  Q 686.01 183.58 688.69 184.21
  C 692.85 185.20 697.26 184.59 701.57 184.33
  Q 708.30 183.92 714.83 182.82
  Q 715.37 182.73 715.37 183.28
  L 715.53 200.28
  A 0.68 0.68 0.0 0 1 715.01 200.95
  Q 709.67 202.15 704.94 202.95
  Q 692.68 205.00 680.63 202.03
  C 677.65 201.29 675.03 199.70 672.22 198.33
  Q 669.72 197.11 668.22 195.57
  Q 667.09 194.41 665.78 193.28
  Q 664.44 192.12 663.33 190.59
  Q 659.49 185.29 658.43 180.99
  Q 656.60 173.60 657.53 161.84
  Q 657.55 161.51 657.72 161.80
  Q 657.83 161.98 657.79 162.21
  Q 657.64 163.07 657.97 162.26
  Q 658.37 161.24 658.38 160.27
  C 658.41 158.45 659.99 154.91 660.68 153.98
  Q 662.80 151.12 664.76 148.15
  Q 665.82 146.53 671.78 141.86
  Q 672.14 141.58 672.79 141.61
  Q 673.30 141.63 673.74 141.36
  C 683.07 135.68 696.16 135.23 706.02 139.32
  Q 707.37 139.87 708.54 140.66
  Q 709.42 141.24 710.43 141.56
  Q 711.37 141.85 712.17 142.44
  Q 716.69 145.80 719.41 151.26
  Q 720.36 153.16 720.29 154.85
  C 720.19 157.23 720.49 159.41 720.34 161.76
  Q 720.31 162.30 719.90 162.66
  Q 719.63 162.91 719.65 163.27
  C 719.77 166.46 717.74 168.35 715.66 170.46
  Q 714.93 171.20 714.31 172.02
  Q 713.36 173.28 712.00 173.80
  Q 711.02 174.18 710.13 174.65
  Q 701.50 179.26 691.44 179.35
  Q 685.01 179.41 678.92 176.54
  Z
  M 699.48 157.35
  C 696.12 154.97 689.98 155.50 686.41 156.44
  Q 685.25 156.75 684.10 157.02
  Q 682.35 157.43 680.98 158.66
  Q 680.39 159.20 680.05 159.93
  Q 679.64 160.83 678.99 161.62
  A 0.64 0.63 -59.4 0 0 679.24 162.62
  Q 688.05 166.12 697.17 164.01
  C 698.09 163.79 698.24 163.39 699.03 163.04
  C 701.49 161.97 701.53 158.81 699.48 157.35
  Z"
/>
<path fill="#111111" d="
  M 732.63 169.54
  Q 730.05 167.07 728.83 163.89
  C 727.81 161.23 728.11 157.98 728.14 155.18
  Q 728.17 151.33 730.45 148.03
  Q 731.90 145.93 733.57 144.00
  Q 734.65 142.76 736.02 142.20
  Q 736.92 141.83 737.79 141.36
  Q 745.42 137.21 753.44 136.80
  Q 765.86 136.17 781.65 139.72
  Q 782.24 139.85 782.24 140.45
  L 782.23 157.31
  Q 782.23 158.12 781.44 157.95
  C 771.01 155.68 759.67 154.38 749.60 155.36
  Q 748.16 155.50 747.06 156.56
  A 1.47 1.47 0.0 0 0 747.69 159.03
  Q 752.82 160.46 758.54 161.42
  Q 763.08 162.18 772.70 165.04
  Q 772.85 165.09 772.99 165.04
  Q 773.04 165.02 773.08 164.98
  Q 773.21 164.83 773.38 164.90
  Q 787.41 170.74 785.21 185.79
  C 783.41 198.07 769.92 202.87 759.38 203.57
  Q 744.01 204.58 728.07 200.84
  Q 727.45 200.69 727.45 200.05
  L 727.46 182.80
  Q 727.46 182.50 727.76 182.57
  Q 732.13 183.68 736.68 184.49
  C 744.77 185.94 753.23 185.75 761.70 185.49
  Q 764.13 185.42 766.16 184.26
  Q 767.38 183.56 766.55 182.42
  Q 765.45 180.92 763.86 180.63
  Q 753.63 178.75 742.65 175.48
  Q 741.57 175.15 740.64 174.53
  C 739.63 173.85 738.78 174.35 737.72 173.86
  Q 735.87 173.02 734.85 171.93
  Q 732.75 169.65 732.63 169.54
  Z"
/>
<path fill="#111111" d="
  M 332.10 147.19
  Q 332.66 146.20 333.59 145.26
  Q 334.27 144.58 334.42 143.63
  Q 334.51 143.02 334.95 142.58
  Q 337.17 140.35 338.82 137.70
  A 0.85 0.85 0.0 0 1 339.54 137.30
  L 359.94 137.29
  A 0.39 0.38 19.7 0 1 360.24 137.92
  L 356.20 142.73
  Q 355.89 143.10 355.86 143.60
  Q 355.82 144.58 354.90 145.05
  Q 354.54 145.23 354.44 145.64
  Q 354.36 146.01 354.12 146.31
  Q 352.91 147.80 351.59 149.26
  Q 350.45 150.53 349.47 152.36
  Q 347.76 155.51 344.87 158.38
  Q 343.81 159.42 343.55 160.80
  A 1.34 1.27 -21.6 0 1 343.28 161.38
  L 337.86 167.84
  A 2.24 2.23 -44.7 0 0 337.84 170.71
  L 344.76 179.10
  Q 344.99 179.37 344.89 179.71
  Q 344.83 179.92 344.89 180.13
  Q 344.90 180.17 344.92 180.20
  Q 347.42 182.99 349.65 186.03
  Q 349.83 186.28 349.84 186.59
  Q 349.85 186.72 349.86 186.86
  Q 349.88 187.13 350.07 187.32
  Q 351.31 188.58 352.30 189.93
  Q 357.07 196.49 361.47 202.17
  Q 361.97 202.82 361.16 202.83
  Q 351.76 202.90 341.07 202.85
  Q 339.72 202.84 339.43 201.58
  Q 339.30 201.05 338.96 200.62
  Q 337.16 198.38 335.15 196.15
  Q 334.69 195.64 334.27 194.09
  Q 334.13 193.56 333.76 193.17
  C 332.25 191.56 330.17 189.86 329.49 187.71
  Q 328.87 185.78 326.84 184.71
  Q 326.35 184.46 326.00 184.87
  Q 322.11 189.39 318.98 194.17
  Q 317.89 195.84 316.60 197.10
  Q 315.15 198.52 314.43 200.28
  Q 313.91 201.56 312.94 202.51
  Q 312.58 202.88 312.06 202.88
  L 292.50 202.87
  Q 290.61 202.87 292.03 201.62
  C 293.79 200.07 295.06 197.44 296.37 195.82
  Q 297.42 194.51 298.53 193.17
  Q 299.58 191.90 300.36 190.40
  Q 301.23 188.73 302.68 187.27
  Q 303.88 186.05 304.89 184.51
  Q 307.28 180.89 310.15 177.42
  Q 311.39 175.91 312.25 174.29
  Q 313.36 172.22 315.33 170.56
  A 1.35 1.34 49.3 0 0 315.47 168.65
  Q 313.43 166.31 311.83 163.49
  Q 310.54 161.21 308.70 159.17
  Q 306.96 157.25 305.37 155.28
  Q 304.79 154.56 304.51 153.70
  Q 304.35 153.20 303.99 152.82
  Q 302.33 151.12 301.07 149.21
  Q 299.81 147.30 298.38 145.41
  Q 295.40 141.48 292.76 137.90
  A 0.38 0.37 71.8 0 1 293.06 137.30
  L 313.50 137.29
  Q 314.06 137.29 314.35 137.76
  Q 316.70 141.52 319.73 145.11
  C 320.47 145.99 320.69 147.05 321.39 147.95
  Q 323.80 151.03 326.20 153.89
  A 0.72 0.72 0.0 0 0 327.36 153.83
  C 328.00 152.86 328.98 152.07 329.33 150.95
  Q 329.92 149.08 331.62 147.75
  Q 331.92 147.52 332.10 147.19
  Z"
/>
<path fill="#ffffff" d="
  M 392.71 158.55
  Q 392.86 158.01 393.32 158.08
  Q 394.10 158.20 394.43 157.48
  Q 394.58 157.17 394.92 157.12
  Q 395.25 157.08 395.56 156.94
  Q 405.64 152.37 415.13 158.43
  A 1.35 1.34 10.2 0 1 415.72 159.27
  C 416.01 160.57 417.11 161.45 417.64 162.69
  Q 421.60 171.93 415.93 180.71
  Q 415.28 181.72 414.26 182.33
  Q 405.71 187.40 397.10 184.31
  Q 393.73 183.10 391.24 180.17
  Q 390.91 179.78 390.87 179.26
  Q 390.79 178.27 390.35 177.37
  C 388.36 173.32 389.10 168.02 389.65 163.78
  Q 389.95 161.45 392.37 159.12
  Q 392.62 158.88 392.71 158.55
  Z"
/>
<path fill="#ffffff" d="
  M 483.46 156.05
  C 485.77 156.38 489.14 158.15 487.88 161.11
  C 487.11 162.93 484.89 163.91 483.04 164.24
  Q 474.89 165.68 466.08 162.63
  Q 465.44 162.40 465.78 161.81
  Q 467.83 158.31 470.54 157.24
  Q 476.13 155.00 483.46 156.05
  Z"
/>
<path fill="#ffffff" d="
  M 699.48 157.35
  C 701.53 158.81 701.49 161.97 699.03 163.04
  C 698.24 163.39 698.09 163.79 697.17 164.01
  Q 688.05 166.12 679.24 162.62
  A 0.64 0.63 -59.4 0 1 678.99 161.62
  Q 679.64 160.83 680.05 159.93
  Q 680.39 159.20 680.98 158.66
  Q 682.35 157.43 684.10 157.02
  Q 685.25 156.75 686.41 156.44
  C 689.98 155.50 696.12 154.97 699.48 157.35
  Z"
/>
</svg>
